<?xml version="1.0" encoding="UTF-8" standalone="no"?>
<!-- Created with Inkscape (http://www.inkscape.org/) -->

<svg
   xmlns:dc="http://purl.org/dc/elements/1.1/"
   xmlns:cc="http://creativecommons.org/ns#"
   xmlns:rdf="http://www.w3.org/1999/02/22-rdf-syntax-ns#"
   xmlns:svg="http://www.w3.org/2000/svg"
   xmlns="http://www.w3.org/2000/svg"
   version="1.1"
   width="514.23621"
   height="258.13879"
   id="svg6186">
  <defs
     id="defs6188" />
  <g
     transform="translate(-45.739028,-423.29279)"
     id="layer1">
    <path
       d="m 226.87211,425.05929 -30.68361,0 0,71.94708 c 0,16.39961 -5.99544,23.27717 -19.92623,23.27717 -14.81291,0 -21.16156,-7.05324 -21.16156,-23.45285 l 0,-71.7714 -30.68361,0 0,69.6558 c 0,14.28216 1.41101,22.04183 5.46653,29.44828 7.75967,14.28401 22.92395,21.16156 45.84974,21.16156 17.28173,0 29.2726,-3.52846 38.08822,-11.6395 5.29085,-5.11332 8.99315,-11.46198 11.1106,-18.86843 1.41102,-5.46654 1.93992,-10.57986 1.93992,-19.92623 l 0,-69.83148"
       id="path5189"
       style="fill:#231f20;fill-opacity:1;fill-rule:nonzero;stroke:none" />
    <path
       d="m 294.98931,496.40535 22.63915,-5.28345 4.52894,4.27743 -2.5169,8.04817 -24.65119,-7.04215 z m 19.62109,-61.88133 c 0,0 3.52107,33.20606 2.76656,36.47563 0,0 -0.75452,8.04816 11.31957,36.97679 12.07594,28.92678 4.27744,9.05603 14.33949,31.94484 0,0 2.76655,4.02593 4.52709,6.54098 l 4.52894,-36.22228 c 0.75451,-13.08011 0.50301,-34.46174 0.50301,-34.46174 0.75451,-0.50301 3.52107,-35.96891 3.01806,-38.73732 -0.50301,-2.76655 -0.25151,-12.3256 -0.25151,-12.3256 -36.97863,-1.50903 -45.28015,1.50904 -45.28015,1.50904 -27.16624,-1.76239 -57.6039,-1.76239 -57.6039,-1.76239 -1.76053,6.28948 -2.76655,15.59701 -2.5169,18.61507 0.25151,3.01991 0.75637,7.547 0.25151,15.34551 -0.50116,7.79665 1.25937,30.4358 1.25937,30.4358 l -1.76053,-0.50301 c 1.25752,21.38163 -0.50486,54.08284 -0.50486,54.08284 l 24.65304,0 c 1.25752,-1.51088 25.65721,-60.87347 25.65721,-60.87347 8.80638,-18.11206 15.094,-47.04069 15.094,-47.04069"
       id="path5193"
       style="fill:#b66611;fill-opacity:1;fill-rule:evenodd;stroke:none" />
    <path
       d="m 408.6437,448.33645 21.16156,0 c 11.10876,0 16.04639,3.52662 16.04639,11.63766 0,7.23077 -5.46653,11.28629 -15.34181,11.1106 l -21.86614,0 0,-22.74826 z m 0,43.02771 23.45284,0 c 12.52163,0 18.16385,4.2312 18.16385,13.57757 0,9.17069 -5.46654,13.40189 -17.45741,13.40189 l -24.15928,0 0,-26.97946 z m -30.68361,-66.30487 0,117.44361 60.13374,0 c 14.28216,0 23.62853,-2.46882 31.03498,-8.63994 8.11104,-6.34865 12.16841,-15.34366 12.16841,-26.45241 0,-14.10648 -6.34866,-23.62853 -19.04596,-28.39048 l -1.93992,-0.70643 c 10.22849,-5.28901 15.34181,-13.22436 15.34181,-23.80607 0,-10.93307 -5.64222,-20.27944 -15.16613,-25.03954 -5.99543,-2.99772 -13.93079,-4.40874 -26.09734,-4.40874 l -56.42959,0"
       id="path5197"
       style="fill:#231f20;fill-opacity:1;fill-rule:evenodd;stroke:none" />
    <path
       d="m 171.25991,679.58424 9.96959,0.24966 0,-1.74574 c -3.09019,-0.14795 -3.43971,-0.34767 -3.43971,-2.59087 l 0,-32.35354 -9.67184,0.99678 0,1.59409 1.79567,0.29959 c 0.99677,0.1498 1.34629,0.49931 1.34629,2.44293 l 0,7.0292 c -1.1965,-0.44939 -2.74251,-0.69904 -4.43832,-0.69904 -4.08696,0 -7.32694,1.19835 -9.47028,3.28991 -2.29313,2.2432 -3.68935,5.48503 -3.68935,9.97143 0,7.32693 3.73928,12.36258 10.16931,12.36258 2.14334,0 4.73606,-1.0467 7.42864,-3.19004 l 0,2.34306 z m 0,-7.62652 c 0,0.74712 -0.0499,1.49424 -0.29959,2.24321 -0.59917,1.74389 -2.04347,2.79059 -4.38654,2.79059 -3.73929,0 -5.93256,-3.58949 -5.93256,-9.77171 0,-6.97741 2.59272,-10.3191 6.18037,-10.3191 2.04532,0 3.34168,1.04855 4.03887,2.39299 0.39945,0.7989 0.39945,1.74575 0.39945,2.89231 l 0,9.77171 z m 33.18942,0.34767 c -1.44431,2.89231 -3.48778,4.78599 -6.8794,4.78599 -5.43325,0 -6.92749,-4.78599 -6.92749,-10.01951 l 13.40929,0 c 1.54601,0 2.44293,-0.39945 2.44293,-2.04348 0,-2.79245 -0.69904,-10.22109 -10.86835,-10.22109 -4.08696,0 -7.07913,1.44615 -9.07267,3.78922 -1.99355,2.34306 -2.89231,5.58304 -2.89231,9.07267 0,7.22892 3.29175,12.81196 12.01491,12.76203 5.78277,0 8.87295,-2.94039 10.4689,-7.17899 l -1.69581,-0.94684 z m -13.75881,-7.42679 c 0,-3.04026 0.84883,-7.97789 4.786,-7.97789 3.59134,0 4.0888,4.13874 4.0888,6.33201 0,1.29636 -0.34952,1.64588 -1.59594,1.64588 l -7.27886,0 z m 29.1413,14.9553 16.25166,0 c 4.88586,0 8.17577,-0.89876 10.26918,-2.49286 2.09341,-1.64403 3.0421,-4.03887 3.0421,-7.0292 0,-5.63297 -4.13874,-8.32555 -8.82487,-9.02274 4.78599,-1.09663 7.37871,-3.78922 7.37871,-7.77816 0,-2.94039 -1.14656,-4.98387 -3.2899,-6.33016 -2.09341,-1.34629 -5.23538,-1.89369 -9.17254,-1.8456 l -15.65434,0 0,1.74574 c 3.83915,0.19972 4.13874,0.34951 4.13874,2.99032 l 0,25.0266 c 0,2.64265 -0.29959,2.79059 -4.13874,2.99032 l 0,1.74574 z m 11.01814,-17.29837 2.89046,0 c 5.43325,0 8.12583,3.38792 8.12583,7.97604 -0.0499,5.63297 -3.28991,7.22892 -6.97927,7.22892 -3.04025,0 -4.03702,-0.74897 -4.03702,-3.4397 l 0,-11.76526 z m 0,-2.09526 0,-10.91643 c 0,-1.8456 0.69719,-2.04347 3.28991,-2.09341 4.23675,0 6.82947,2.24321 6.77954,6.43003 -0.0499,4.13873 -2.393,6.57981 -7.32879,6.57981 l -2.74066,0 z m 47.95424,17.00063 c -0.69903,0.0999 -1.69581,0.0499 -2.44478,-0.14979 -0.74711,-0.19973 -1.64402,-0.89691 -1.64402,-3.93901 l 0,-11.46567 c 0,-3.09019 -0.64726,-7.07913 -8.97282,-7.07913 -6.67967,0 -11.118,2.89231 -11.118,5.98249 0,1.9954 2.69259,2.84238 3.78922,2.84238 1.04671,0 1.59595,-0.69904 1.94362,-1.79383 1.29636,-4.03887 3.0421,-4.93763 4.68798,-4.93763 1.5941,0 3.33984,0.89876 3.33984,4.13874 l 0,2.59272 c -2.34492,1.34629 -5.98434,2.39299 -9.27425,3.4397 -3.9871,1.29636 -5.23353,3.38977 -5.23353,6.18036 0,3.78922 2.59088,7.17899 7.47673,7.17899 3.0421,0 5.4351,-1.79382 7.12906,-2.94039 0.69719,1.64403 1.49608,2.94039 3.68936,2.94039 2.29313,0 5.08558,-0.74711 6.82947,-1.49608 l -0.19788,-1.49424 z m -10.41896,-4.43647 c -0.0518,3.14011 -2.24506,3.98709 -3.78922,3.98709 -2.34307,0 -3.98895,-1.74389 -3.98895,-4.53633 0,-2.393 0.89691,-3.48964 2.89231,-4.43648 1.84375,-0.89691 3.73744,-1.54602 4.88586,-2.14334 l 0,7.12906 z m 11.71717,6.82947 14.35613,0 0,-1.74574 c -4.03702,-0.19973 -4.43647,-0.34767 -4.43647,-2.59087 l 0,-11.46752 c 0,-3.04026 0.89691,-4.23675 2.09341,-4.23675 0.79889,0 1.59594,0.39945 2.79244,1.09663 0.54739,0.29959 1.14657,0.59918 1.84375,0.59918 0.84883,0 1.59595,-0.44938 2.14335,-1.09664 0.49931,-0.69904 0.69903,-1.64588 0.69903,-2.54279 0,-1.69581 -0.99677,-3.0421 -3.09203,-3.0421 -1.94362,0 -3.53772,1.24643 -6.57982,4.23675 l -0.59732,-4.23675 -8.97281,1.39622 0,1.59595 1.79382,0.24965 c 0.99677,0.0999 1.34629,0.49747 1.34629,2.39115 l 0,15.05702 c 0,2.2432 -0.34952,2.44292 -3.38977,2.59087 l 0,1.74574 z m 41.87189,-7.57659 c -1.64403,3.38792 -3.58949,4.83407 -6.67968,4.83407 -4.18682,0 -6.67967,-3.68935 -6.67967,-10.3191 0,-7.07913 2.34306,-9.87157 4.98571,-9.87157 1.94177,0 2.99032,1.59595 3.88723,4.48825 0.29959,0.99678 0.84698,1.54417 2.04348,1.54417 1.49609,0 3.78922,-0.79705 3.78922,-2.89046 0,-3.14196 -4.38654,-5.23537 -9.2724,-5.23537 -4.0888,0 -7.17899,1.29636 -9.22246,3.53956 -2.09341,2.29499 -3.19005,5.53311 -3.19005,9.47213 0,8.42541 4.48641,12.61223 11.66355,12.61223 3.94086,0 8.57521,-1.54416 10.3191,-7.42679 l -1.64403,-0.74712 z m 25.11722,0.0481 c -1.44431,2.89231 -3.48779,4.78599 -6.87941,4.78599 -5.43324,0 -6.92933,-4.78599 -6.92933,-10.01951 l 13.41114,0 c 1.54416,0 2.44107,-0.39945 2.44107,-2.04348 0,-2.79245 -0.69718,-10.22109 -10.86649,-10.22109 -4.08696,0 -7.07913,1.44615 -9.07268,3.78922 -1.99354,2.34306 -2.8923,5.58304 -2.8923,9.07267 0,7.22892 3.2899,12.81196 12.01491,12.76203 5.78277,0 8.87295,-2.94039 10.4689,-7.17899 l -1.69581,-0.94684 z m -13.75881,-7.42679 c 0,-3.04026 0.84883,-7.97789 4.78599,-7.97789 3.5895,0 4.08881,4.13874 4.08881,6.33201 0,1.29636 -0.34952,1.64588 -1.59595,1.64588 l -7.27885,0 z m 27.66001,-21.73485 -9.67185,0.99678 0,1.59409 1.79567,0.29959 c 0.99493,0.1498 1.34629,0.49931 1.34629,2.44293 l 0,27.02015 c 0,2.2432 -0.35136,2.44292 -3.44155,2.59087 l 0,1.74574 13.41114,0 0,-1.74574 c -3.09018,-0.14795 -3.4397,-0.34767 -3.4397,-2.59087 l 0,-32.35354 z m 18.43754,37.28747 c 8.725,0 12.5623,-4.78599 12.5623,-12.81011 0,-8.02782 -3.8373,-12.81381 -12.5623,-12.81381 -8.67508,0 -12.51238,4.78599 -12.51238,12.81381 0,8.02412 3.8373,12.81011 12.51238,12.81011 z m 0,-2.09341 c -3.83731,0 -5.53312,-3.98709 -5.53312,-10.7167 0,-6.73146 1.69581,-10.7204 5.53312,-10.7204 3.88908,0 5.58304,3.98894 5.58304,10.7204 0,6.72961 -1.69396,10.7167 -5.58304,10.7167 z m 15.89289,1.49609 12.96176,0 0,-1.74574 -1.24643,-0.098 c -1.39622,-0.10172 -1.79382,-0.44939 -1.79382,-2.29314 l 0,-11.71533 c 0,-1.19649 0.0999,-2.14334 0.49746,-2.8923 0.7989,-1.54602 2.44293,-2.84238 4.73606,-2.84238 2.79245,0 4.38655,1.64588 4.38655,5.13551 l 0,12.3145 c 0,1.84375 -0.39945,2.19142 -1.7439,2.29314 l -1.29821,0.098 0,1.74574 13.01169,0 0,-1.74574 c -3.09018,-0.14795 -3.4397,-0.34767 -3.4397,-2.59087 l 0,-12.91183 c 0,-4.83592 -2.49101,-7.77816 -7.47673,-7.77816 -3.14011,0 -5.48318,1.59595 -8.67322,3.59134 l -0.69904,-3.59134 -8.97281,1.39622 0,1.59595 1.84375,0.24965 c 0.94685,0.14795 1.29636,0.49747 1.29636,2.39115 l 0,15.05702 c 0,2.2432 -0.29958,2.44292 -3.38977,2.59087 l 0,1.74574 z m 57.17671,-2.393 c -0.69718,0.0999 -1.69581,0.0499 -2.44292,-0.14979 -0.74712,-0.19973 -1.64403,-0.89691 -1.64403,-3.93901 l 0,-11.46567 c 0,-3.09019 -0.64911,-7.07913 -8.97466,-7.07913 -6.67968,0 -11.11616,2.89231 -11.11616,5.98249 0,1.9954 2.69259,2.84238 3.78922,2.84238 1.04671,0 1.5941,-0.69904 1.94362,-1.79383 1.29636,-4.03887 3.04025,-4.93763 4.68613,-4.93763 1.59595,0 3.33984,0.89876 3.33984,4.13874 l 0,2.59272 c -2.34307,1.34629 -5.98249,2.39299 -9.2724,3.4397 -3.9871,1.29636 -5.23352,3.38977 -5.23352,6.18036 0,3.78922 2.59087,7.17899 7.47672,7.17899 3.0421,0 5.43325,-1.79382 7.12906,-2.94039 0.69719,1.64403 1.49609,2.94039 3.68936,2.94039 2.29313,0 5.08558,-0.74711 6.82947,-1.49608 l -0.19973,-1.49424 z m -10.41896,-4.43647 c -0.0499,3.14011 -2.2432,3.98709 -3.78922,3.98709 -2.34122,0 -3.9871,-1.74389 -3.9871,-4.53633 0,-2.393 0.89692,-3.48964 2.89046,-4.43648 1.84561,-0.89691 3.73929,-1.54602 4.88586,-2.14334 l 0,7.12906 z M 79.192424,586.24074 c 0,-2.64265 0.297737,-2.79245 4.136887,-2.99217 l 0,-1.74389 -15.155027,0 0,1.74389 c 3.83915,0.19972 4.138737,0.34952 4.138737,2.99217 l 0,17.99555 c 0,5.08558 -1.29636,10.41897 -7.278851,10.41897 -5.882629,0 -7.278852,-5.38332 -7.278852,-10.41897 l 0,-17.99555 c 0,-2.64265 0.299587,-2.79245 4.138737,-2.99217 l 0,-1.74389 -15.155027,0 0,1.74389 c 3.83915,0.19972 4.136888,0.34952 4.136888,2.99217 l 0,17.89569 c 0,2.94224 0.499311,5.63298 1.496085,7.37872 2.193272,3.88908 6.729609,5.23352 12.662169,5.23352 5.632973,0 10.269172,-1.34444 12.562306,-5.28345 0.996774,-1.74575 1.546016,-4.43648 1.595948,-7.32879 l 0,-17.89569 z m 6.823923,29.76081 12.961755,0 0,-1.74574 -1.246429,-0.098 c -1.396223,-0.0999 -1.793823,-0.44938 -1.793823,-2.29314 l 0,-11.71532 c 0,-1.1965 0.09801,-2.14334 0.497463,-2.89231 0.798898,-1.54602 2.442927,-2.84053 4.736057,-2.84053 2.7906,0 4.38655,1.64588 4.38655,5.13366 l 0,12.3145 c 0,1.84376 -0.39945,2.19328 -1.74574,2.29314 l -1.29636,0.098 0,1.74574 13.01168,0 0,-1.74574 c -3.09018,-0.14794 -3.4397,-0.34767 -3.4397,-2.59087 l 0,-12.91182 c 0,-4.83593 -2.49101,-7.77632 -7.47673,-7.77632 -3.14011,0 -5.483174,1.5941 -8.67322,3.5895 l -0.699036,-3.5895 -8.972811,1.39437 0,1.59595 1.843753,0.24966 c 0.946843,0.14794 1.296361,0.49746 1.296361,2.39299 l 0,15.05517 c 0,2.2432 -0.299587,2.44293 -3.38977,2.59087 l 0,1.74574 z m 41.374423,-24.72701 -9.62191,1.09663 0,1.59595 1.79567,0.24966 c 0.94684,0.14794 1.29451,0.49746 1.29451,2.39299 l 0,15.05517 c 0,2.2432 -0.34767,2.44293 -3.4397,2.59087 l 0,1.74574 13.41113,0 0,-1.74574 c -3.09203,-0.14794 -3.4397,-0.34767 -3.4397,-2.59087 l 0,-20.3904 z m -3.44155,-3.28991 c 2.393,0 3.98895,-1.74389 4.03888,-3.88723 0,-2.14519 -1.54602,-3.88908 -4.03888,-3.88908 -2.44108,0 -3.98709,1.74389 -3.98709,3.88908 0,2.14334 1.54601,3.88723 3.98709,3.88723 z m 18.03994,28.01692 4.786,0 4.33661,-11.85587 c 1.39437,-3.78367 2.84053,-6.92009 3.63942,-8.66398 0.79705,-1.74204 1.3463,-2.03978 3.48964,-2.14149 l 0,-1.76423 -10.02137,0 0,1.76423 2.2432,0.24965 c 0.89876,0.0999 1.04856,0.64726 0.7989,1.54417 -0.49931,1.89184 -1.24643,4.28114 -2.14334,6.82023 l -2.84238,8.21459 -2.79244,-7.56734 c -0.34952,-0.99677 -2.29129,-6.6205 -2.64081,-7.56734 -0.29958,-0.94499 -0.19972,-1.34444 0.74712,-1.44431 l 1.99355,-0.24965 0,-1.76423 -12.51238,0 0,1.76423 c 2.09341,0.15164 2.69259,0.49931 3.38977,2.19327 1.29636,3.23443 2.44293,6.42078 3.63943,9.75692 l 3.88908,10.71115 z m 38.08822,-7.52851 c -1.4443,2.89231 -3.48963,4.78785 -6.8794,4.78785 -5.43325,0 -6.92933,-4.78785 -6.92933,-10.02137 l 13.41113,0 c 1.54417,0 2.44293,-0.39945 2.44293,-2.04348 0,-2.79244 -0.69719,-10.21924 -10.86835,-10.21924 -4.08695,0 -7.07912,1.44431 -9.07267,3.78737 -1.99355,2.34307 -2.89231,5.58304 -2.89231,9.07268 0,7.22892 3.28991,12.81381 12.01491,12.76203 5.78277,0 8.87295,-2.94039 10.4689,-7.17714 l -1.69581,-0.9487 z m -13.7588,-7.42679 c 0,-3.04025 0.84883,-7.97604 4.78599,-7.97604 3.58949,0 4.08881,4.13689 4.08881,6.33201 0,1.29451 -0.34952,1.64403 -1.59595,1.64403 l -7.27885,0 z m 18.13795,14.9553 14.35798,0 0,-1.74574 c -4.03703,-0.19787 -4.43648,-0.34767 -4.43648,-2.59087 l 0,-11.46567 c 0,-3.0421 0.89691,-4.23675 2.09341,-4.23675 0.79705,0 1.5941,0.3976 2.7906,1.09479 0.54924,0.29958 1.14841,0.59917 1.8456,0.59917 0.84698,0 1.59595,-0.44938 2.14334,-1.09664 0.49746,-0.69903 0.69904,-1.64588 0.69904,-2.54279 0,-1.69581 -0.99863,-3.04025 -3.09204,-3.04025 -1.94361,0 -3.53956,1.24458 -6.57981,4.23675 l -0.59917,-4.23675 -8.97282,1.39437 0,1.59595 1.79568,0.24966 c 0.99677,0.0999 1.34444,0.49746 1.34444,2.39299 l 0,15.05517 c 0,2.2432 -0.34767,2.44293 -3.38977,2.59087 l 0,1.74574 z m 38.63376,-16.94885 0,-6.38194 c -1.89553,-1.1965 -4.6362,-1.69396 -7.12906,-1.69396 -5.8327,0 -9.57198,2.74067 -9.57198,7.67645 0,3.93902 3.33983,6.08236 7.57843,7.52666 2.29129,0.7989 4.93394,2.19512 4.93394,4.88586 0,2.14334 -1.49423,3.4397 -3.83915,3.4397 -3.58764,0 -6.0805,-3.23998 -7.277,-7.4268 l -1.69581,0 0.54924,7.17714 c 1.79382,1.64588 5.38332,2.34307 8.2257,2.34307 6.08235,0 9.86972,-2.99032 9.86972,-7.82625 0,-4.33661 -2.69258,-6.38009 -7.47673,-8.0759 -2.59272,-0.89691 -5.13551,-1.99355 -5.13551,-4.33661 0.0499,-1.89554 1.44615,-3.28991 3.68936,-3.28991 2.74251,0 4.83407,2.44293 5.58304,5.98249 l 1.69581,0 z m 14.45044,-7.77816 -9.62191,1.09663 0,1.59595 1.79382,0.24966 c 0.94869,0.14794 1.29636,0.49746 1.29636,2.39299 l 0,15.05517 c 0,2.2432 -0.34767,2.44293 -3.4397,2.59087 l 0,1.74574 13.41113,0 0,-1.74574 c -3.09203,-0.14794 -3.4397,-0.34767 -3.4397,-2.59087 l 0,-20.3904 z m -3.4397,-3.28991 c 2.39115,0 3.9871,-1.74389 4.03703,-3.88723 0,-2.14519 -1.54602,-3.88908 -4.03703,-3.88908 -2.44478,0 -3.98894,1.74389 -3.98894,3.88908 0,2.14334 1.54416,3.88723 3.98894,3.88723 z m 24.12044,3.5895 -5.58304,0 0,-6.28208 -2.39484,0 -3.93717,6.28208 -3.33984,0 0,2.29313 3.14012,0 0,16.55125 c 0,4.73606 3.53956,6.18037 5.93256,6.18037 2.2432,0 5.08558,-1.09479 7.37686,-2.54094 l -0.49746,-1.3463 c -0.89876,0.34767 -1.94546,0.54925 -3.09018,0.54925 -1.79567,0 -3.19005,-1.34629 -3.19005,-4.73791 l 0,-14.65572 5.58304,0 0,-2.29313 z m 28.21295,22.03443 c -0.69719,0.0999 -1.69396,0.0499 -2.44293,-0.1498 -0.74711,-0.19787 -1.64403,-0.89691 -1.64403,-3.93716 l 0,-11.46752 c 0,-3.09018 -0.64725,-7.07728 -8.97466,-7.07728 -6.67968,0 -11.11615,2.89046 -11.11615,5.98064 0,1.9954 2.69258,2.84238 3.78922,2.84238 1.0467,0 1.59595,-0.69904 1.94362,-1.79382 1.29636,-4.03888 3.0421,-4.93579 4.68613,-4.93579 1.59594,0 3.34168,0.89691 3.34168,4.13689 l 0,2.59272 c -2.34491,1.34629 -5.98434,2.393 -9.27424,3.4397 -3.9871,1.29636 -5.23353,3.38977 -5.23353,6.18222 0,3.78737 2.59087,7.17714 7.47673,7.17714 3.0421,0 5.43325,-1.79383 7.12906,-2.94039 0.69903,1.64588 1.49608,2.94039 3.68935,2.94039 2.29314,0 5.08558,-0.74712 6.82948,-1.49424 l -0.19973,-1.49608 z m -10.41712,-4.43648 c -0.0518,3.14012 -2.24505,3.9871 -3.78922,3.9871 -2.34306,0 -3.98894,-1.7439 -3.98894,-4.53634 0,-2.393 0.89691,-3.48963 2.89046,-4.43648 1.8456,-0.89691 3.73929,-1.54601 4.8877,-2.14334 l 0,7.12906 z m 27.022,-17.59795 -5.58489,0 0,-6.28208 -2.393,0 -3.93901,6.28208 -3.33799,0 0,2.29313 3.14012,0 0,16.55125 c 0,4.73606 3.53956,6.18037 5.93255,6.18037 2.24321,0 5.08374,-1.09479 7.37687,-2.54094 l -0.49746,-1.3463 c -0.89691,0.34767 -1.94547,0.54925 -3.09204,0.54925 -1.79382,0 -3.19004,-1.34629 -3.19004,-4.73791 l 0,-14.65572 5.58489,0 0,-2.29313 z m 10.30246,24.42742 11.41574,0 0,-1.74574 -2.84238,-0.19787 c -1.24458,-0.0999 -1.29636,-0.64911 -0.99677,-1.89369 0.64725,-2.79244 1.64588,-5.63482 2.59272,-8.82487 l 10.21924,0 2.89231,8.72501 c 0.3976,1.24458 0.19972,1.89368 -1.04671,1.99355 l -2.64265,0.19787 0,1.74574 14.65572,0 0,-1.74574 c -2.69258,-0.098 -3.28991,-0.29774 -4.03703,-2.59087 l -10.12123,-30.16026 -5.33338,0 -5.58304,16.05194 c -1.69581,4.83592 -3.48964,10.21924 -4.88586,13.80873 -0.89691,2.34307 -1.39622,2.79245 -4.28668,2.89046 l 0,1.74574 z m 10.91643,-14.85544 c 0.59917,-1.79567 3.78922,-11.81519 4.33846,-13.41113 l 4.43647,13.41113 -8.77493,0 z m 43.26811,14.85544 9.47027,0 0,-1.74574 c -3.0384,-0.14794 -3.38792,-0.34767 -3.38792,-2.59087 l 0,-20.3904 -9.67184,1.09663 0,1.59595 1.79382,0.24966 c 0.99862,0.14794 1.34814,0.49746 1.34814,2.39299 l 0,10.76664 c 0,1.04855 -0.0999,2.2432 -0.4013,2.89231 -0.69719,1.54601 -2.44108,2.89046 -4.73421,2.89046 -2.59272,0 -4.43648,-1.69396 -4.43648,-5.58305 l 0,-16.30159 -9.67184,1.09663 0,1.59595 1.79382,0.24966 c 0.99862,0.14794 1.34629,0.49746 1.34629,2.39299 l 0,12.51238 c 0,5.78277 3.53956,7.47673 7.17899,7.47673 4.2386,0 7.12906,-2.49101 8.92473,-3.4397 l 0.44753,2.84237 z m 26.76309,-24.42742 -5.58489,0 0,-6.28208 -2.39299,0 -3.93717,6.28208 -3.33984,0 0,2.29313 3.14012,0 0,16.55125 c 0,4.73606 3.53956,6.18037 5.93256,6.18037 2.2432,0 5.08373,-1.09479 7.37686,-2.54094 l -0.49746,-1.3463 c -0.89691,0.34767 -1.94362,0.54925 -3.09203,0.54925 -1.79382,0 -3.19005,-1.34629 -3.19005,-4.73791 l 0,-14.65572 5.58489,0 0,-2.29313 z m 15.55078,25.02475 c 8.72501,0 12.56416,-4.78415 12.56416,-12.81012 0,-8.02782 -3.83915,-12.81196 -12.56416,-12.81196 -8.67507,0 -12.51237,4.78414 -12.51237,12.81196 0,8.02597 3.8373,12.81012 12.51237,12.81012 z m 0,-2.09341 c -3.83915,0 -5.53311,-3.9871 -5.53311,-10.71671 0,-6.73145 1.69396,-10.71855 5.53311,-10.71855 3.88908,0 5.58304,3.9871 5.58304,10.71855 0,6.72961 -1.69396,10.71671 -5.58304,10.71671 z m 2.69259,-24.52729 0.94684,-1.34444 -6.72961,-6.87941 c -1.74574,-1.79567 -2.59272,-2.34491 -3.53956,-2.34491 -1.04671,0 -2.393,1.54602 -2.393,2.69258 0,1.1965 1.49608,2.14334 3.19004,3.09204 l 8.52529,4.78414 z m 13.20031,26.02337 12.96176,0 0,-1.74574 -1.24643,-0.098 c -1.39623,-0.0999 -1.79383,-0.44938 -1.79383,-2.29314 l 0,-11.71532 c 0,-1.1965 0.098,-2.14334 0.49747,-2.89231 0.79705,-1.54602 2.44292,-2.84053 4.73606,-2.84053 2.79059,0 4.38654,1.64588 4.38654,5.13366 l 0,12.3145 c 0,1.84376 -0.3976,2.19328 -1.74389,2.29314 l -1.29636,0.098 0,1.74574 13.00984,0 0,-1.74574 c -3.09019,-0.14794 -3.4397,-0.34767 -3.4397,-2.59087 l 0,-12.91182 c 0,-4.83593 -2.49101,-7.77632 -7.47673,-7.77632 -3.14196,0 -5.48318,1.5941 -8.67323,3.5895 l -0.69903,-3.5895 -8.97281,1.39437 0,1.59595 1.84375,0.24966 c 0.94684,0.14794 1.29636,0.49746 1.29636,2.39299 l 0,15.05517 c 0,2.2432 -0.29959,2.44293 -3.38977,2.59087 l 0,1.74574 z m 44.51454,0.59733 c 8.72316,0 12.56231,-4.78415 12.56231,-12.81012 0,-8.02782 -3.83915,-12.81196 -12.56231,-12.81196 -8.67507,0 -12.51237,4.78414 -12.51237,12.81196 0,8.02597 3.8373,12.81012 12.51237,12.81012 z m 0,-2.09341 c -3.83915,0 -5.53311,-3.9871 -5.53311,-10.71671 0,-6.73145 1.69396,-10.71855 5.53311,-10.71855 3.88723,0 5.58304,3.9871 5.58304,10.71855 0,6.72961 -1.69581,10.71671 -5.58304,10.71671 z m 44.65694,-0.24966 -1.24643,-0.098 c -1.39622,-0.0999 -1.79382,-0.49931 -1.79382,-2.29314 l 0,-11.41574 c 0,-0.94869 0.0481,-1.8456 0.2478,-2.49285 0.69904,-2.29499 2.54279,-3.53957 4.68613,-3.53957 2.64266,0 4.33847,1.69396 4.33847,5.28346 l 0,12.1647 c 0,1.84376 -0.39945,2.19328 -1.74574,2.29314 l -1.29636,0.098 0,1.74574 13.01168,0 0,-1.74574 c -3.09203,-0.14794 -3.4397,-0.34767 -3.4397,-2.59087 l 0,-12.91182 c 0,-4.83593 -2.54279,-7.77632 -7.67645,-7.77632 -3.69121,0 -6.72961,2.44108 -8.72501,3.78737 -1.14656,-1.99355 -3.09018,-3.78737 -6.77954,-3.78737 -3.4397,0 -6.03242,2.09341 -8.42541,3.5895 l -0.69719,-3.5895 -8.97466,1.39437 0,1.59595 1.8456,0.24966 c 0.94684,0.14794 1.29636,0.49746 1.29636,2.39299 l 0,15.05517 c 0,2.2432 -0.29959,2.44293 -3.38977,2.59087 l 0,1.74574 12.95991,0 0,-1.74574 -1.24458,-0.098 c -1.39623,-0.0999 -1.79567,-0.44938 -1.79567,-2.29314 l 0,-11.41574 c 0,-0.94869 0.0499,-1.74574 0.29958,-2.44292 0.69719,-2.24506 2.64081,-3.5895 4.93579,-3.5895 3.09018,0 4.03702,2.34307 4.03702,5.28346 l 0,12.1647 c 0,1.84376 -0.39944,2.19328 -1.79567,2.29314 l -1.24458,0.098 0,1.74574 12.61224,0 0,-1.74574 z m 43.87098,-0.64725 c -0.69718,0.0999 -1.69581,0.0499 -2.44292,-0.1498 -0.74897,-0.19787 -1.64403,-0.89691 -1.64403,-3.93716 l 0,-11.46752 c 0,-3.09018 -0.64911,-7.07728 -8.97466,-7.07728 -6.67968,0 -11.11616,2.89046 -11.11616,5.98064 0,1.9954 2.69074,2.84238 3.78737,2.84238 1.04856,0 1.59595,-0.69904 1.94547,-1.79382 1.29636,-4.03888 3.04025,-4.93579 4.68613,-4.93579 1.59595,0 3.33984,0.89691 3.33984,4.13689 l 0,2.59272 c -2.34307,1.34629 -5.98249,2.393 -9.2724,3.4397 -3.98894,1.29636 -5.23537,3.38977 -5.23537,6.18222 0,3.78737 2.59272,7.17714 7.47857,7.17714 3.0421,0 5.43325,-1.79383 7.12906,-2.94039 0.69719,1.64588 1.49609,2.94039 3.68751,2.94039 2.29498,0 5.08558,-0.74712 6.83132,-1.49424 l -0.19973,-1.49608 z m -10.41896,-4.43648 c -0.0499,3.14012 -2.2432,3.9871 -3.78922,3.9871 -2.34307,0 -3.98894,-1.7439 -3.98894,-4.53634 0,-2.393 0.89876,-3.48963 2.8923,-4.43648 1.84376,-0.89691 3.73929,-1.54601 4.88586,-2.14334 l 0,7.12906"
       id="path5201"
       style="fill:#231f20;fill-opacity:1;fill-rule:evenodd;stroke:none" />
  </g>
</svg>
